<?xml version="1.0" standalone="no"?>
<!DOCTYPE svg PUBLIC "-//W3C//DTD SVG 20010904//EN"
 "http://www.w3.org/TR/2001/REC-SVG-20010904/DTD/svg10.dtd">
<svg version="1.0" xmlns="http://www.w3.org/2000/svg"
 width="1280.000000pt" height="1227.000000pt" viewBox="0 0 1280.000000 1227.000000"
 preserveAspectRatio="xMidYMid meet">
<metadata>
Created by potrace 1.15, written by Peter Selinger 2001-2017
</metadata>
<g transform="translate(0.000000,1227.000000) scale(0.100000,-0.100000)"
fill="#ff5722" stroke="none">
<path d="M3505 12205 c-308 -35 -873 -98 -1255 -140 -382 -42 -1039 -114
-1460 -161 -421 -46 -771 -84 -777 -84 -27 0 -10 -123 66 -500 77 -384 77
-385 102 -382 38 4 1140 140 2929 361 443 55 832 103 865 106 l60 6 649 -951
c356 -523 646 -954 643 -956 -17 -17 -1168 59 -1995 132 -227 20 -415 34 -418
32 -2 -3 25 -126 61 -274 36 -148 146 -604 245 -1014 99 -410 261 -1080 360
-1490 99 -410 261 -1080 360 -1490 99 -410 261 -1080 360 -1490 184 -762 413
-1711 704 -2913 90 -373 165 -679 167 -681 7 -5 4741 -317 4806 -316 71 0 60
-22 92 180 19 116 47 288 151 923 22 136 58 358 80 495 23 136 61 371 86 522
24 151 56 343 69 425 14 83 193 1183 399 2445 206 1262 385 2359 397 2438 13
78 26 147 29 152 3 5 52 21 109 36 114 28 248 80 331 126 564 318 945 991
1056 1868 22 170 25 595 6 750 -95 752 -393 1282 -859 1523 -189 97 -342 137
-558 144 -138 5 -142 4 -230 -27 -532 -189 -849 -631 -970 -1355 -35 -209 -54
-430 -62 -702 l-6 -233 -31 -5 c-118 -19 -692 -86 -981 -114 -779 -76 -1477
-111 -2249 -114 l-470 -2 -1099 1395 -1099 1395 -51 2 c-29 0 -304 -27 -612
-62z m7986 -460 c554 -97 905 -574 1015 -1380 32 -233 23 -594 -23 -875 -90
-555 -341 -1069 -656 -1341 -133 -115 -334 -230 -446 -254 -32 -7 -33 -6 -27
21 3 16 39 261 81 544 83 569 107 727 135 905 10 66 34 213 52 327 29 187 34
207 53 211 11 3 182 29 380 58 198 29 364 56 369 60 13 11 -31 375 -70 569
-90 456 -286 764 -614 962 -93 56 -219 120 -229 116 -4 -2 25 -385 64 -853 39
-467 71 -851 70 -853 -1 -1 -42 -10 -91 -18 -80 -15 -144 -15 -632 -4 -298 7
-544 16 -546 19 -2 3 1 76 5 161 47 849 270 1343 705 1564 153 78 237 91 405
61z"/>
<path d="M11068 11541 c-344 -379 -545 -922 -513 -1384 l7 -106 31 -5 c43 -7
890 -76 893 -73 1 1 -29 153 -66 337 -38 184 -112 547 -165 805 -53 259 -99
479 -103 491 -6 18 -16 10 -84 -65z"/>
<path d="M11742 9758 c-8 -46 -31 -184 -52 -308 -21 -124 -57 -335 -80 -470
-23 -135 -66 -387 -96 -560 -30 -173 -54 -318 -54 -322 0 -14 255 146 330 207
237 192 388 423 503 766 34 101 177 652 177 681 0 11 -75 22 -342 51 -189 21
-350 38 -358 37 -12 0 -19 -21 -28 -82z"/>
<path d="M2960 10860 l0 -50 50 0 50 0 0 50 0 50 -50 0 -50 0 0 -50z"/>
</g>
</svg>
